
<svg xmlns="http://www.w3.org/2000/svg" xmlns:xlink="http://www.w3.org/1999/xlink" width= '48' height= '25' viewBox="0 0 48 25">
<linearGradient id="gradient">
  	<stop offset="0%" stop-color="#ff8500"/>
  	<stop offset="100%" stop-color="#ffae00"/>
</linearGradient>
<g fill="url(#gradient)">

	<path d="M46,0H7.5C7,0,6.5,0.3,6.2,0.8l-6,10.8C0.1,11.8,0,12.1,0,12.3v0c0,0.3,0.1,0.5,0.2,0.7l6,10.8
		c0.3,0.5,0.8,0.8,1.3,0.8H46c0.8,0,1.5-0.7,1.5-1.5V1.5C47.5,0.7,46.8,0,46,0z M44.5,21.6H8.4l-5.2-9.3L8.4,3h36.1V21.6z"/>
	<path fill="#FF8500" d="M11.9,17.2c2.6,0,4.8-2.2,4.8-4.8c0-2.6-2.2-4.8-4.8-4.8c-2.6,0-4.8,2.2-4.8,4.8C7.1,15,9.2,17.2,11.9,17.2
		z M11.9,10.6c1,0,1.8,0.8,1.8,1.8c0,1-0.8,1.8-1.8,1.8c-1,0-1.8-0.8-1.8-1.8C10.1,11.4,10.9,10.6,11.9,10.6z"/>
	<polygon points="20.9,11.8 23.3,15.2 25.3,15.2 25.3,8.5 23.3,8.5 23.3,11.7 20.9,8.5 18.9,8.5 18.9,15.2
		20.9,15.2 	"/>
	<polygon points="31.4,13.4 28.4,13.4 28.4,12.7 31.3,12.7 31.3,10.9 28.4,10.9 28.4,10.3 31.4,10.3 31.4,8.5
		26.4,8.5 26.4,15.2 31.4,15.2 	"/>
	<polygon points="35.7,15.2 36.5,11.4 37.4,15.2 39.5,15.2 41.4,8.5 39.2,8.5 38.3,12.6 37.3,8.5 35.8,8.5
		34.8,12.6 33.9,8.5 31.7,8.5 33.6,15.2 	"/>
</g>
</svg>
