<svg xmlns="http://www.w3.org/2000/svg" xmlns:xlink="http://www.w3.org/1999/xlink" width='38' height='38' viewBox="0 0 38 38">
<linearGradient id="gradient">
  	<stop offset="0%" stop-color="#ff8500"/>
  	<stop offset="100%" stop-color="#ffae00"/>
</linearGradient>
<g fill="url(#gradient)">

	<path d="M25.6,18.7c0-3.8-3.1-6.9-6.9-6.9c-3.8,0-6.9,3.1-6.9,6.9c0,3.8,3.1,6.9,6.9,6.9
		C22.5,25.6,25.6,22.5,25.6,18.7z M14.7,18.7c0-2.2,1.8-3.9,3.9-3.9c2.2,0,3.9,1.8,3.9,3.9c0,2.2-1.8,3.9-3.9,3.9
		C16.5,22.6,14.7,20.9,14.7,18.7z"/>
	<path d="M20.1,8.2V1.5c0-0.8-0.7-1.5-1.5-1.5c-0.8,0-1.5,0.7-1.5,1.5v6.7c0,0.8,0.7,1.5,1.5,1.5
		C19.5,9.7,20.1,9,20.1,8.2z"/>
	<path d="M20.1,35.8v-6.7c0-0.8-0.7-1.5-1.5-1.5c-0.8,0-1.5,0.7-1.5,1.5v6.7c0,0.8,0.7,1.5,1.5,1.5
		C19.5,37.3,20.1,36.6,20.1,35.8z"/>
	<path d="M31.8,5.5c-0.6-0.6-1.5-0.6-2.1,0L25,10.2c-0.6,0.6-0.6,1.5,0,2.1c0.3,0.3,0.7,0.4,1.1,0.4s0.8-0.1,1.1-0.4
		l4.8-4.8C32.4,7,32.4,6,31.8,5.5z"/>
	<path d="M5.5,31.8c0.3,0.3,0.7,0.4,1.1,0.4s0.8-0.1,1.1-0.4l4.8-4.8c0.6-0.6,0.6-1.5,0-2.1s-1.5-0.6-2.1,0l-4.8,4.8
		C4.9,30.3,4.9,31.2,5.5,31.8z"/>
	<path d="M35.8,17.1h-6.7c-0.8,0-1.5,0.7-1.5,1.5c0,0.8,0.7,1.5,1.5,1.5h6.7c0.8,0,1.5-0.7,1.5-1.5
		C37.3,17.8,36.6,17.1,35.8,17.1z"/>
	<path d="M1.5,20.1h6.7c0.8,0,1.5-0.7,1.5-1.5c0-0.8-0.7-1.5-1.5-1.5H1.5c-0.8,0-1.5,0.7-1.5,1.5
		C0,19.5,0.7,20.1,1.5,20.1z"/>
	<path d="M25,25c-0.6,0.6-0.6,1.5,0,2.1l4.8,4.8c0.3,0.3,0.7,0.4,1.1,0.4s0.8-0.1,1.1-0.4c0.6-0.6,0.6-1.5,0-2.1
		L27.1,25C26.5,24.4,25.5,24.4,25,25z"/>
	<path d="M12.3,12.3c0.6-0.6,0.6-1.5,0-2.1L7.6,5.5C7,4.9,6,4.9,5.5,5.5C4.9,6,4.9,7,5.5,7.6l4.8,4.8
		c0.3,0.3,0.7,0.4,1.1,0.4S12,12.6,12.3,12.3z"/>
</g>
</svg>
