<svg xmlns="http://www.w3.org/2000/svg" xmlns:xlink="http://www.w3.org/1999/xlink" width="43" height="15" viewBox="0 0 43 15">
  <defs>
    <style>
      .cls-1 {
        fill: #fff;
        fill-rule: evenodd;
      }
    </style>
  </defs>
  <path d="M41.180,4.842 L32.229,13.975 C32.178,14.036 32.137,14.102 32.081,14.159 C31.532,14.719 30.812,14.995 30.093,14.990 C29.374,14.995 28.653,14.719 28.105,14.159 C28.049,14.102 28.008,14.036 27.957,13.975 L20.994,6.870 L14.030,13.975 C13.980,14.036 13.939,14.102 13.883,14.159 C13.335,14.719 12.614,14.995 11.895,14.990 C11.176,14.995 10.456,14.719 9.907,14.159 C9.851,14.102 9.810,14.036 9.759,13.975 L0.808,4.842 C-0.281,3.731 -0.281,1.930 0.808,0.819 C1.897,-0.292 3.662,-0.292 4.751,0.819 L11.895,8.107 L18.858,1.004 C18.908,0.943 18.949,0.877 19.006,0.819 C19.554,0.259 20.275,-0.017 20.994,-0.012 C21.713,-0.017 22.433,0.259 22.982,0.819 C23.038,0.877 23.079,0.943 23.130,1.004 L30.093,8.106 L37.237,0.819 C38.326,-0.292 40.091,-0.292 41.180,0.819 C42.269,1.930 42.269,3.731 41.180,4.842 Z" class="cls-1"/>
</svg>
