<svg xmlns="http://www.w3.org/2000/svg" xmlns:xlink="http://www.w3.org/1999/xlink" width= '28' height= '24' viewBox="0 0 40.3 34.7"
	 xml:space="preserve">

<g fill="white">
	<path  d="M25,12.4c-0.8,0-1.5,0.7-1.5,1.5s0.7,1.5,1.5,1.5h9.1l1.1-3H25z"/>
	<path d="M1.5,3h6.2l9.1,18.2c0.3,0.5,0.8,0.8,1.3,0.8h15.7c0.6,0,1.2-0.4,1.4-1l5-13.8c0.2-0.5,0.1-1-0.2-1.4
		c-0.3-0.4-0.7-0.6-1.2-0.6H20.5C19.7,5.3,19,6,19,6.8s0.7,1.5,1.5,1.5h16.2l-1.5,4.1l-1.1,3l-1.3,3.7H19.1L10,0.8
		C9.8,0.3,9.2,0,8.7,0H1.5C0.7,0,0,0.7,0,1.5C0,2.3,0.7,3,1.5,3z"/>
	<path d="M25.1,29.7c0-2.8-2.3-5-5-5s-5,2.3-5,5s2.3,5,5,5S25.1,32.5,25.1,29.7z M20,31.7c-1.1,0-2-0.9-2-2
		s0.9-2,2-2c1.1,0,2,0.9,2,2S21.2,31.7,20,31.7z"/>
	<path d="M38.1,29.7c0-2.8-2.3-5-5-5s-5,2.3-5,5s2.3,5,5,5S38.1,32.5,38.1,29.7z M33,31.7c-1.1,0-2-0.9-2-2
		s0.9-2,2-2s2,0.9,2,2S34.2,31.7,33,31.7z"/>
</g>
</svg>
