
<svg xmlns="http://www.w3.org/2000/svg" xmlns:xlink="http://www.w3.org/1999/xlink" width= '53' height= '26' viewBox="0 0 53 26">
<linearGradient id="gradient">
  	<stop offset="0%" stop-color="#ff8500"/>
  	<stop offset="100%" stop-color="#ffae00"/>
</linearGradient>
<g fill="url(#gradient)">
	<path  d="M34.4,18H18.6c0.1,0.5,0.2,1,0.2,1.5c0,0.5-0.1,1-0.2,1.5h15.8c-0.1-0.5-0.2-1-0.2-1.5
		C34.2,19,34.3,18.5,34.4,18z"/>
	<path  d="M7.4,18c-0.3,0-0.5,0-0.9,0C5.4,18,3,17.7,3,16.4c0-2.4,3.3-5,5.4-5.5c0.4-0.1,0.8-0.2,1.3-0.3
		c1-0.2,2.2-0.4,3.5-0.8H13c-0.8,0-1.5-0.7-1.5-1.5s0.7-1.5,1.5-1.5h6.9c0.5-0.3,1-0.7,1.5-1.1c1.9-1.5,4.2-2.4,6.7-2.6
		C29,3.1,29.9,3,30.9,3c2.6,0,5.2,0.7,7.5,2.2l3.2,2.1c1.6,1.1,3.5,1.7,5.5,1.9l1.7,0.2c0.6,0.1,1,0.5,1,1.1v5.9
		c-0.1,0.6-1.1,1.6-4.1,1.7c0.1,0.5,0.2,1,0.2,1.6c0,0.5-0.1,1-0.2,1.4c6.8-0.3,7.1-4.4,7.1-4.6v-6c0-2.1-1.6-3.8-3.7-4l-1.7-0.2
		c-1.5-0.1-2.9-0.6-4.1-1.4L40,2.7c-2.8-1.8-5.9-2.7-9.2-2.7c-1.1,0-2.1,0.1-3.1,0.2c-3.1,0.3-5.9,1.4-8.3,3.2
		c-4,3.1-7.9,3.8-10.4,4.3C8.6,7.8,8.1,7.9,7.7,8C4.6,8.7,0,12.4,0,16.4v0c0,1.3,0.6,4.3,6.3,4.6c0.3,0,0.6,0,0.9,0
		c0.1,0,0.1,0,0.2,0c-0.1-0.5-0.2-1-0.2-1.5C7.2,19,7.2,18.5,7.4,18z"/>
	<path  d="M18.6,18c-0.7-2.5-2.9-4.3-5.6-4.3c-2.7,0-4.9,1.8-5.6,4.3c-0.1,0.5-0.2,1-0.2,1.5c0,0.5,0.1,1,0.2,1.5
		c0.7,2.5,2.9,4.3,5.6,4.3c2.7,0,5-1.9,5.6-4.3c0.1-0.5,0.2-1,0.2-1.5C18.8,19,18.7,18.5,18.6,18z M13,22.4c-1.5,0-2.8-1.3-2.8-2.8
		s1.3-2.8,2.8-2.8c1.5,0,2.8,1.3,2.8,2.8S14.5,22.4,13,22.4z"/>
	<path  d="M45.6,21c0.1-0.5,0.2-0.9,0.2-1.4c0-0.5-0.1-1.1-0.2-1.6c-0.7-2.4-2.9-4.2-5.6-4.2c-2.7,0-4.9,1.8-5.6,4.3
		c-0.1,0.5-0.2,1-0.2,1.5c0,0.5,0.1,1,0.2,1.5c0.7,2.5,2.9,4.3,5.6,4.3C42.7,25.4,45,23.5,45.6,21z M40,22.4c-1.5,0-2.8-1.3-2.8-2.8
		s1.3-2.8,2.8-2.8c1.5,0,2.8,1.3,2.8,2.8S41.5,22.4,40,22.4z"/>
	<path  d="M31.7,8.4c0-0.8-0.7-1.5-1.5-1.5H19.8H13c-0.8,0-1.5,0.7-1.5,1.5s0.7,1.5,1.5,1.5h0.2h17.1
		C31.1,9.9,31.7,9.2,31.7,8.4z"/>
</g>
</svg>
